<?xml version="1.0" encoding="utf-8"?>
<!-- Generator: Adobe Illustrator 27.5.0, SVG Export Plug-In . SVG Version: 6.00 Build 0)  -->
<svg version="1.1" id="Layer_1" xmlns="http://www.w3.org/2000/svg" xmlns:xlink="http://www.w3.org/1999/xlink" x="0px" y="0px"
	 viewBox="0 0 4000 4000" style="enable-background:new 0 0 4000 4000;" xml:space="preserve">
<g>

	<g>
		<defs>
			<path id="SVGID_1_" d="M2251.814,2307.86c-93.382-42.859-155.851-133.352-162.822-235.863
				c-4.561-67.058,15.106-132.236,53.529-184.726l-468.87,438.885c-61.855,77.553-17.245,257.168,97.885,358.607
				c0,0,116.182,118.316,348.545,354.947c0,0,276.884,0,830.652,0C2950.732,3039.71,2717.759,2795.76,2251.814,2307.86"/>
		</defs>
		<clipPath id="SVGID_00000051379100353834583350000006219752337273465248_">
			<use xlink:href="#SVGID_1_"  style="overflow:visible;"/>
		</clipPath>
		
			<linearGradient id="SVGID_00000041296783679572497670000013423606403650791044_" gradientUnits="userSpaceOnUse" x1="2821.6072" y1="2676.1689" x2="1556.1497" y2="2178.0872">
			<stop  offset="0" style="stop-color:#5E2C0B"/>
			<stop  offset="1" style="stop-color:#FFEF00"/>
		</linearGradient>
		
			<rect x="1611.796" y="1887.271" style="clip-path:url(#SVGID_00000051379100353834583350000006219752337273465248_);fill:url(#SVGID_00000041296783679572497670000013423606403650791044_);" width="1338.936" height="1152.439"/>
	</g>
	<g>
		<defs>
			<path id="SVGID_00000153683423132170181550000005594954093876482481_" d="M2088.992,2071.997
				c6.97,102.51,69.44,193.004,162.822,235.863c211.382,40.175,428.012-36.653,566.847-201.034
				c138.835-164.38,178.337-390.811,103.363-592.491c-74.975-201.68-252.793-347.322-465.292-381.096H1040.6l618.414,603.778
				h644.029l-84.661,79.246l-75.861,71.009C2104.098,1939.761,2084.431,2004.939,2088.992,2071.997"/>
		</defs>
		<clipPath id="SVGID_00000113313686977605318350000009696369959558559667_">
			<use xlink:href="#SVGID_00000153683423132170181550000005594954093876482481_"  style="overflow:visible;"/>
		</clipPath>
		
			<linearGradient id="SVGID_00000157282552410812792650000000185879401856234376_" gradientUnits="userSpaceOnUse" x1="2676.0969" y1="2110.5547" x2="1044.0676" y2="1192.0713">
			<stop  offset="0" style="stop-color:#5E2C0B"/>
			<stop  offset="1" style="stop-color:#FFEF00"/>
		</linearGradient>
		
			<rect x="1040.6" y="1133.238" style="clip-path:url(#SVGID_00000113313686977605318350000009696369959558559667_);fill:url(#SVGID_00000157282552410812792650000000185879401856234376_);" width="1956.398" height="1214.796"/>
	</g>
	<defs>
		<filter id="Adobe_OpacityMaskFilter" filterUnits="userSpaceOnUse" x="1040.6" y="1133.238" width="1918.801" height="1094.639">
			<feColorMatrix  type="matrix" values="1 0 0 0 0  0 1 0 0 0  0 0 1 0 0  0 0 0 1 0"/>
		</filter>
	</defs>
	
		<mask maskUnits="userSpaceOnUse" x="1040.6" y="1133.238" width="1918.801" height="1094.639" id="SVGID_00000064331603413381649340000004754702144774974860_">
		<g style="filter:url(#Adobe_OpacityMaskFilter);">
			
				<linearGradient id="SVGID_00000083088925701117573320000007607721831642545318_" gradientUnits="userSpaceOnUse" x1="1153.075" y1="4703.7764" x2="2441.1208" y2="5259.9712" gradientTransform="matrix(1 0 0 1 354.7284 -3235.7556)">
				<stop  offset="0" style="stop-color:#FFFFFF"/>
				<stop  offset="1" style="stop-color:#000000"/>
			</linearGradient>
			
				<rect x="1040.6" y="1133.238" style="fill:url(#SVGID_00000083088925701117573320000007607721831642545318_);" width="1918.801" height="1094.639"/>
		</g>
	</mask>
	
		<path style="mask:url(#SVGID_00000064331603413381649340000004754702144774974860_);fill-rule:evenodd;clip-rule:evenodd;fill:#FFF000;" d="
		M1040.6,1133.238c1326.855,166.727,1872.961,531.606,1638.318,1094.639c51.853-32.367,99.127-72.963,139.743-121.052
		c138.835-164.38,178.337-390.811,103.363-592.491c-74.975-201.68-252.793-347.322-465.292-381.096H1040.6z"/>
	<defs>
		
			<filter id="Adobe_OpacityMaskFilter_00000087378602281155749200000013808982077247700627_" filterUnits="userSpaceOnUse" x="1645.745" y="2106.714" width="1003.353" height="932.996">
			<feColorMatrix  type="matrix" values="1 0 0 0 0  0 1 0 0 0  0 0 1 0 0  0 0 0 1 0"/>
		</filter>
	</defs>
	
		<mask maskUnits="userSpaceOnUse" x="1645.745" y="2106.714" width="1003.353" height="932.996" id="SVGID_00000037673104249464123770000003287270705424890034_">
		<g style="filter:url(#Adobe_OpacityMaskFilter_00000087378602281155749200000013808982077247700627_);">
			
				<linearGradient id="SVGID_00000081613132135402813250000013721961514476420765_" gradientUnits="userSpaceOnUse" x1="673.5982" y1="4876.2583" x2="2118.9937" y2="5914.9531" gradientTransform="matrix(1 0 0 1 561.0152 -2959.011)">
				<stop  offset="0" style="stop-color:#FFFFFF"/>
				<stop  offset="1" style="stop-color:#000000"/>
			</linearGradient>
			
				<rect x="1645.745" y="2106.714" style="fill:url(#SVGID_00000081613132135402813250000013721961514476420765_);" width="1003.353" height="932.997"/>
		</g>
	</mask>
	
		<path style="mask:url(#SVGID_00000037673104249464123770000003287270705424890034_);fill-rule:evenodd;clip-rule:evenodd;fill:#FFF000;" d="
		M2649.098,3039.71c-501.782-275.968-748.785-586.967-741.011-932.996l-234.435,219.442
		c-61.855,77.553-17.245,257.168,97.885,358.607c0,0,116.182,118.316,348.545,354.947
		C2120.08,3039.71,2296.42,3039.71,2649.098,3039.71"/>
</g>
</svg>
