<svg version="1.1" xmlns="http://www.w3.org/2000/svg" viewBox="0 0 4000 4000">
  <g fill="#FF">
    
    <!-- উপরের অংশ -->
    <path d="M2088.992,2071.997
      c6.97,102.51,69.44,193.004,162.822,235.863c211.382,40.175,428.012-36.653,566.847-201.034
      c138.835-164.38,178.337-390.811,103.363-592.491c-74.975-201.68-252.793-347.322-465.292-381.096H1040.6l618.414,603.778
      h644.029l-84.661,79.246l-75.861,71.009C2104.098,1939.761,2084.431,2004.939,2088.992,2071.997"/>
      
    <!-- নিচের অংশ -->
    <path d="M2251.814,2307.86c-93.382-42.859-155.851-133.352-162.822-235.863
      c-4.561-67.058,15.106-132.236,53.529-184.726l-468.87,438.885c-61.855,77.553-17.245,257.168,97.885,358.607
      c0,0,116.182,118.316,348.545,354.947c0,0,276.884,0,830.652,0C2950.732,3039.71,2717.759,2795.76,2251.814,2307.86"/>
  </g>
</svg>